<svg xmlns="http://www.w3.org/2000/svg" xmlns:xlink="http://www.w3.org/1999/xlink" preserveAspectRatio="xMidYMid" width="65.031" height="50.62" viewBox="0 0 65.031 50.62">
  <defs>
    <style>
      .cls-1 {
        fill: #ad2662;
        fill-rule: evenodd;
      }
    </style>
  </defs>
  <path d="M29.490,5.123 C27.467,6.079 25.208,7.399 22.715,9.058 C20.215,10.725 18.267,12.323 16.871,13.858 C15.273,15.602 13.888,17.546 12.711,19.714 C11.550,21.882 10.784,24.359 10.411,27.152 L14.463,27.152 C18.652,27.152 21.925,27.946 24.273,29.530 C26.619,31.112 28.042,33.317 28.539,36.141 C29.185,39.799 28.226,43.118 25.668,46.111 C23.103,49.113 19.702,50.610 15.443,50.610 C10.952,50.610 7.497,49.399 5.062,46.968 C2.628,44.536 1.073,41.404 0.395,37.561 C-0.935,30.015 0.967,22.778 6.105,15.856 C11.234,8.935 18.056,3.642 26.579,-0.008 L29.490,5.123 ZM65.046,5.123 C63.023,6.079 60.764,7.399 58.271,9.058 C55.771,10.725 53.823,12.323 52.427,13.858 C50.828,15.602 49.443,17.546 48.266,19.714 C47.106,21.882 46.339,24.359 45.967,27.152 L50.018,27.152 C54.207,27.152 57.480,27.946 59.828,29.530 C62.175,31.112 63.598,33.317 64.095,36.141 C64.740,39.799 63.782,43.118 61.224,46.111 C58.659,49.113 55.257,50.610 50.999,50.610 C46.508,50.610 43.053,49.399 40.618,46.968 C38.184,44.536 36.628,41.404 35.951,37.561 C34.620,30.015 36.523,22.778 41.660,15.856 C46.790,8.935 53.612,3.642 62.135,-0.008 L65.046,5.123 Z" class="cls-1"/>
</svg>
